<?xml version="1.0" standalone="no"?>
<!DOCTYPE svg PUBLIC "-//W3C//DTD SVG 20010904//EN"
 "http://www.w3.org/TR/2001/REC-SVG-20010904/DTD/svg10.dtd">
<svg version="1.0" xmlns="http://www.w3.org/2000/svg"
 width="209.000000pt" height="242.000000pt" viewBox="0 0 209.000000 242.000000"
 preserveAspectRatio="xMidYMid meet">

<g transform="translate(0.000000,242.000000) scale(0.100000,-0.100000)"
fill="#000000" stroke="none">
<path d="M740 2385 c-263 -36 -573 -146 -688 -242 -47 -40 -60 -123 -43 -289
35 -358 249 -911 462 -1199 98 -133 340 -377 428 -434 121 -78 180 -52 412
179 212 211 317 364 447 651 185 408 277 788 243 999 -12 76 -31 96 -146 159
-275 152 -749 226 -1115 176z m576 -264 c148 -28 273 -65 363 -108 l74 -35 -6
-87 c-13 -195 -97 -469 -240 -776 -70 -153 -135 -258 -226 -372 -77 -97 -261
-283 -279 -283 -20 0 -238 229 -313 329 -203 271 -413 822 -431 1131 l-3 55
50 27 c99 53 306 110 501 137 109 15 382 5 510 -18z"/>
<path d="M609 1551 c-43 -43 -41 -101 5 -147 l34 -34 354 0 c332 0 355 1 385
20 41 25 58 79 39 125 -28 66 -22 65 -424 65 l-364 0 -29 -29z"/>
</g>
</svg>
